<?xml version="1.0" encoding="iso-8859-1"?>
<svg version="1.1" id="Capa_1" xmlns="http://www.w3.org/2000/svg" xmlns:xlink="http://www.w3.org/1999/xlink" x="0px" y="0px"
	 viewBox="0 0 512 512" style="enable-background:new 0 0 512 512;" xml:space="preserve">
<g>
	<g>
		<path d="M435.659,19.194c-119.225-13.815-240.137-13.815-359.283,0C32.83,23.855,0,60.393,0,104.186v346.015
			c0,29.211,23.755,52.966,52.966,52.966c25.22,0,46.37-17.724,51.672-41.373c51.611,15.596,102.474,23.568,151.38,23.717
			c48.867-0.149,99.73-8.122,151.344-23.72c5.3,23.65,26.445,41.376,51.673,41.376c29.202,0,52.966-23.755,52.966-52.966V104.186
			C512,60.41,479.179,23.873,435.659,19.194z M105.931,443.708V122.345c100.255-10.169,198.612-10.161,300.138,0.009v321.352
			c-51.282,15.87-101.754,24.006-150.051,24.15C207.68,467.711,157.218,459.576,105.931,443.708z M494.345,450.201
			c0,19.474-15.846,35.31-35.31,35.31c-19.474,0-35.31-15.837-35.31-35.31v-0.054c0-0.015,0-0.03,0-0.046V114.391
			c0-4.52-3.416-8.307-7.909-8.775c-54.122-5.703-107.317-8.545-160.344-8.545c-53.027,0-105.887,2.842-159.303,8.545
			c-4.493,0.468-7.892,4.255-7.892,8.775v335.561c-0.003,0.117-0.004,0.234-0.003,0.351c-0.055,19.427-15.877,35.209-35.308,35.209
			c-19.474,0-35.31-15.837-35.31-35.31V104.186c0-34.745,26.05-63.744,60.681-67.452c117.884-13.647,237.436-13.656,355.328,0
			c0.018,0.009,0.044,0.009,0.071,0.009c34.551,3.699,60.61,32.697,60.61,67.443V450.201z"/>
	</g>
</g>
</svg>
