<svg height="36.00009pt" viewBox="0 0 480.00009 480.00009" width="36.00009pt" xmlns="http://www.w3.org/2000/svg">
    <path d="m456 168c-10.132812.042969-19.148438 6.445312-22.527344 16h-41.472656v-72c0-13.253906-10.746094-24-24-24h-72v-41.472656c11.011719-3.878906 17.621094-15.132813 15.644531-26.640625-1.980469-11.507813-11.96875-19.9101565-23.644531-19.886719h-96c-11.675781-.0234375-21.664062 8.378906-23.644531 19.886719-1.976563 11.507812 4.632812 22.761719 15.644531 26.640625v41.472656h-72c-13.253906 0-24 10.746094-24 24v72h-41.472656c-3.878906-11.011719-15.132813-17.621094-26.640625-15.644531-11.507813 1.980469-19.9101565 11.96875-19.886719 23.644531v96c-.0234375 11.675781 8.378906 21.664062 19.886719 23.644531 11.507812 1.976563 22.761719-4.632812 26.640625-15.644531h41.472656v72c0 13.253906 10.746094 24 24 24h72v41.472656c-11.011719 3.878906-17.621094 15.132813-15.644531 26.640625 1.980469 11.507813 11.96875 19.910157 23.644531 19.886719h96c11.675781.023438 21.664062-8.378906 23.644531-19.886719 1.976563-11.507812-4.632812-22.761719-15.644531-26.640625v-41.472656h72c13.253906 0 24-10.746094 24-24v-72h41.472656c3.878906 11.011719 15.132813 17.621094 26.640625 15.644531 11.507813-1.980469 19.910157-11.96875 19.886719-23.644531v-96c0-13.253906-10.746094-24-24-24zm-264-152h96c4.417969 0 8 3.582031 8 8s-3.582031 8-8 8h-96c-4.417969 0-8-3.582031-8-8s3.582031-8 8-8zm8 32h80v40h-80zm-176 248c-4.417969 0-8-3.582031-8-8v-96c0-4.417969 3.582031-8 8-8s8 3.582031 8 8v96c0 4.417969-3.582031 8-8 8zm24-16v-80h40v80zm240 184h-96c-4.417969 0-8-3.582031-8-8s3.582031-8 8-8h96c4.417969 0 8 3.582031 8 8s-3.582031 8-8 8zm-8-32h-80v-40h80zm96-64c0 4.417969-3.582031 8-8 8h-256c-4.417969 0-8-3.582031-8-8v-256c0-4.417969 3.582031-8 8-8h256c4.417969 0 8 3.582031 8 8zm16-168h40v80h-40zm72 88c0 4.417969-3.582031 8-8 8s-8-3.582031-8-8v-96c0-4.417969 3.582031-8 8-8s8 3.582031 8 8zm0 0" />
</svg>