<svg height="36.00009pt" viewBox="0 0 480.00009 480.00009" width="36.00009pt" xmlns="http://www.w3.org/2000/svg">
    <path d="m456 168c-10.132812.042969-19.148438 6.445312-22.527344 16h-35.273437c-16.996094-47.683594-54.515625-85.203125-102.199219-102.199219v-35.273437c11.011719-3.878906 17.621094-15.132813 15.644531-26.640625-1.980469-11.507813-11.96875-19.9101565-23.644531-19.886719h-96c-11.675781-.0234375-21.664062 8.378906-23.644531 19.886719-1.976563 11.507812 4.632812 22.761719 15.644531 26.640625v35.273437c-47.683594 16.996094-85.203125 54.515625-102.199219 102.199219h-35.273437c-3.878906-11.011719-15.132813-17.621094-26.640625-15.644531-11.507813 1.980469-19.9101565 11.96875-19.886719 23.644531v96c-.0234375 11.675781 8.378906 21.664062 19.886719 23.644531 11.507812 1.976563 22.761719-4.632812 26.640625-15.644531h35.273437c16.996094 47.683594 54.515625 85.203125 102.199219 102.199219v35.273437c-11.011719 3.878906-17.621094 15.132813-15.644531 26.640625 1.980469 11.507813 11.96875 19.910157 23.644531 19.886719h96c11.675781.023438 21.664062-8.378906 23.644531-19.886719 1.976563-11.507812-4.632812-22.761719-15.644531-26.640625v-35.273437c47.683594-16.996094 85.203125-54.515625 102.199219-102.199219h35.273437c3.878906 11.011719 15.132813 17.621094 26.640625 15.644531 11.507813-1.980469 19.910157-11.96875 19.886719-23.644531v-96c0-13.253906-10.746094-24-24-24zm-264-152h96c4.417969 0 8 3.582031 8 8s-3.582031 8-8 8h-96c-4.417969 0-8-3.582031-8-8s3.582031-8 8-8zm8 32h80v29.015625c-26.246094-6.6875-53.753906-6.6875-80 0zm-176 248c-4.417969 0-8-3.582031-8-8v-96c0-4.417969 3.582031-8 8-8s8 3.582031 8 8v96c0 4.417969-3.582031 8-8 8zm24-16v-80h29.015625c-6.6875 26.246094-6.6875 53.753906 0 80zm240 184h-96c-4.417969 0-8-3.582031-8-8s3.582031-8 8-8h96c4.417969 0 8 3.582031 8 8s-3.582031 8-8 8zm-8-32h-80v-29.015625c26.246094 6.6875 53.753906 6.6875 80 0zm-40-40c-83.945312 0-152-68.050781-152-152 0-83.945312 68.054688-152 152-152 83.949219 0 152 68.054688 152 152-.09375 83.910156-68.089844 151.90625-152 152zm162.984375-192h29.015625v80h-29.015625c6.6875-26.246094 6.6875-53.753906 0-80zm61.015625 88c0 4.417969-3.582031 8-8 8s-8-3.582031-8-8v-96c0-4.417969 3.582031-8 8-8s8 3.582031 8 8zm0 0" />
    <path d="m240 136c-57.4375 0-104 46.5625-104 104s46.5625 104 104 104 104-46.5625 104-104c-.066406-57.410156-46.589844-103.933594-104-104zm0 192c-48.601562 0-88-39.398438-88-88s39.398438-88 88-88 88 39.398438 88 88c-.058594 48.578125-39.421875 87.941406-88 88zm0 0" />
</svg>